<?xml version="1.0" encoding="UTF-8" standalone="no"?>
<svg
  width="16"
  height="16"
  fill="currentColor"
  class="bi bi-stopwatch-fill"
  viewBox="0 0 16 16"
  version="1.1"
  id="svg1"
  sodipodi:docname="favicon.svg"
  inkscape:version="1.3.2 (091e20ef0f, 2023-11-25, custom)"
  xmlns:inkscape="http://www.inkscape.org/namespaces/inkscape"
  xmlns:sodipodi="http://sodipodi.sourceforge.net/DTD/sodipodi-0.dtd"
  xmlns="http://www.w3.org/2000/svg"
  xmlns:svg="http://www.w3.org/2000/svg"
>
  <defs
    id="defs1"
  />
  <sodipodi:namedview
    id="namedview1"
    pagecolor="#ffffff"
    bordercolor="#000000"
    borderopacity="0.25"
    inkscape:showpageshadow="2"
    inkscape:pageopacity="0.0"
    inkscape:pagecheckerboard="0"
    inkscape:deskcolor="#d1d1d1"
    inkscape:zoom="14.75"
    inkscape:cx="7.9661017"
    inkscape:cy="8"
    inkscape:window-width="1576"
    inkscape:window-height="830"
    inkscape:window-x="0"
    inkscape:window-y="0"
    inkscape:window-maximized="1"
    inkscape:current-layer="svg1"
  />
  <style>
  path {
    fill: black;
  }

  @media (prefers-color-scheme: dark) {
    path {
      fill: white;
    }
  }
  </style>
  <path
    d="M6.5 0a.5.5 0 0 0 0 1H7v1.07A7.001 7.001 0 0 0 8 16a7 7 0 0 0 5.29-11.584l.013-.012.354-.354.353.354a.5.5 0 1 0 .707-.707l-1.414-1.415a.5.5 0 1 0-.707.707l.354.354-.354.354-.012.012A6.97 6.97 0 0 0 9 2.071V1h.5a.5.5 0 0 0 0-1zm2 5.6V9a.5.5 0 0 1-.5.5H4.5a.5.5 0 0 1 0-1h3V5.6a.5.5 0 1 1 1 0"
    id="path1"
  />
</svg>
